<?xml version="1.0" encoding="UTF-8" standalone="no"?>
<!DOCTYPE svg PUBLIC "-//W3C//DTD SVG 1.1//EN" "http://www.w3.org/Graphics/SVG/1.1/DTD/svg11.dtd">
<svg width="100%" height="100%" viewBox="0 0 512 512" version="1.1" xmlns="http://www.w3.org/2000/svg" xmlns:xlink="http://www.w3.org/1999/xlink" xml:space="preserve" xmlns:serif="http://www.serif.com/" style="fill-rule:evenodd;clip-rule:evenodd;stroke-linecap:round;stroke-linejoin:round;stroke-miterlimit:1.5;">
    <g transform="matrix(1.05285,0,0,0.711413,275.726,135.388)">
        <path d="M67.341,464L67.341,152.176L109.648,109.868L156.352,152.176L156.352,464" style="fill:none;stroke:black;stroke-width:35.61px;"/>
    </g>
    <g transform="matrix(2.03628,0,0,1.18308,28.2501,-83.4665)">
        <path d="M67.341,464L67.341,152.176L109.648,109.868L156.352,152.176L156.352,464" style="fill:none;stroke:black;stroke-width:19.22px;"/>
    </g>
    <g transform="matrix(0.850378,0,0,0.421211,160.889,270.042)">
        <path d="M67.341,464L67.341,152.176L109.648,109.868L156.352,152.176L156.352,464" style="fill:none;stroke:black;stroke-width:47.69px;"/>
    </g>
    <g transform="matrix(0.581959,0,0,0.234841,190.91,104.583)">
        <path d="M67.341,464L67.341,152.176L109.648,109.868L156.352,152.176L156.352,464L67.341,464Z" style="fill:none;stroke:black;stroke-width:72.11px;"/>
    </g>
    <g transform="matrix(1.05285,0,0,0.711413,0.759825,135.388)">
        <path d="M67.341,464L67.341,152.176L109.648,109.868L156.352,152.176L156.352,464" style="fill:none;stroke:black;stroke-width:35.61px;"/>
    </g>
    <g transform="matrix(0.932292,0,0,1,15.981,1.48351)">
        <path d="M46.462,464L468.44,464" style="fill:none;stroke:black;stroke-width:33.1px;"/>
    </g>
</svg>
