<?xml version="1.0" encoding="UTF-8" standalone="no"?>
<!DOCTYPE svg PUBLIC "-//W3C//DTD SVG 1.1//EN" "http://www.w3.org/Graphics/SVG/1.1/DTD/svg11.dtd">
<svg width="100%" height="100%" viewBox="0 0 512 512" version="1.1" xmlns="http://www.w3.org/2000/svg" xmlns:xlink="http://www.w3.org/1999/xlink" xml:space="preserve" xmlns:serif="http://www.serif.com/" style="fill-rule:evenodd;clip-rule:evenodd;stroke-linecap:round;stroke-linejoin:round;">
    <path d="M256,400L256,464M256,208L256,272M256,48L256,80M416,208L102.63,208C98.385,208.001 94.31,206.312 91.31,203.31L32,144L91.31,84.69C94.31,81.688 98.385,79.999 102.63,80L416,80C424.777,80 432,87.223 432,96L432,192C432,200.777 424.777,208 416,208ZM96,400L409.37,400C413.615,400.001 417.69,398.312 420.69,395.31L480,336L420.69,276.69C417.69,273.688 413.615,271.999 409.37,272L96,272C87.223,272 80,279.223 80,288L80,384C80,392.777 87.223,400 96,400Z" style="fill:none;fill-rule:nonzero;stroke:white;stroke-width:32px;"/>
</svg>
